<svg width="347" height="347" viewBox="0 0 347 347" fill="none" xmlns="http://www.w3.org/2000/svg">
<g filter="url(#filter0_d_1306_1506)">
<circle cx="173.647" cy="166.647" r="149.162" fill="url(#paint0_linear_1306_1506)"/>
</g>
<circle cx="173" cy="166" r="150" fill="white"/>
<g filter="url(#filter1_di_1306_1506)">
<g filter="url(#filter2_di_1306_1506)">
<path d="M194.272 46.5662V77.116C215.475 82.1766 234.17 94.6532 246.981 112.293C259.793 129.932 265.876 151.572 264.132 173.305C262.388 195.037 252.932 215.43 237.473 230.8C222.013 246.17 201.567 255.505 179.829 257.119V236.346C197.102 234.675 213.156 226.706 224.932 213.957C236.708 201.208 243.382 184.571 243.682 167.217C243.982 149.863 237.887 133.006 226.558 119.858C215.23 106.709 199.461 98.1896 182.256 95.9226V128.779C174.564 126.876 166.471 127.404 159.091 130.29C151.71 133.177 145.406 138.28 141.045 144.898C136.685 151.515 134.482 159.322 134.74 167.244C134.997 175.165 137.704 182.812 142.486 189.132L149.252 182.365C145.438 176.806 143.689 170.089 144.308 163.376C144.926 156.663 147.873 150.378 152.638 145.61C157.402 140.842 163.684 137.891 170.396 137.269C177.107 136.647 183.825 138.392 189.384 142.203L196.15 135.436C193.457 133.385 190.502 131.704 187.363 130.438V114.718C199.749 118.182 210.463 126.013 217.524 136.764C224.585 147.515 227.516 160.46 225.775 173.205C224.034 185.95 217.739 197.633 208.053 206.096C198.368 214.559 185.946 219.229 173.085 219.242V287.273C175.37 287.273 177.632 287.211 179.873 287.087C209.548 285.401 237.571 272.875 258.62 251.886C279.67 230.897 292.28 202.908 294.056 173.233C295.833 143.558 286.652 114.264 268.257 90.9135C249.862 67.5627 223.534 51.7814 194.272 46.5662ZM211.351 165.997C211.359 157.194 208.329 148.657 202.773 141.83L196.04 148.564C200.25 154.124 202.306 161.021 201.828 167.979C201.35 174.938 198.37 181.488 193.438 186.42C188.507 191.352 181.958 194.332 175.001 194.811C168.044 195.289 161.148 193.233 155.589 189.022L148.867 195.745C151.828 198.167 155.138 200.126 158.686 201.556V217.287C146.286 213.83 135.559 205.996 128.49 195.236C121.421 184.476 118.49 171.518 120.239 158.763C121.987 146.007 128.298 134.317 138.002 125.858C147.706 117.399 160.147 112.743 173.019 112.752V74.6883V44.7207C142.697 44.7126 113.471 56.0669 91.1051 76.545C68.7388 97.0232 54.8547 125.139 52.1901 155.35C49.5255 185.56 58.2737 215.673 76.7101 239.752C95.1465 263.83 121.933 280.126 151.789 285.428V254.845C130.622 249.748 111.97 237.259 99.1937 219.628C86.417 201.996 80.355 180.381 82.0996 158.675C83.8441 136.97 93.2806 116.601 108.709 101.237C124.138 85.8732 144.545 76.5246 166.254 74.875V95.648C148.981 97.3204 132.928 105.291 121.153 118.041C109.378 130.79 102.706 147.428 102.407 164.781C102.108 182.135 108.205 198.992 119.534 212.14C130.863 225.287 146.632 233.806 163.837 236.071V203.215C169.482 204.603 175.369 204.69 181.053 203.469C186.737 202.248 192.069 199.75 196.645 196.165C201.222 192.58 204.924 188.001 207.472 182.775C210.019 177.549 211.346 171.811 211.351 165.997Z" fill="black"/>
</g>
<g filter="url(#filter3_di_1306_1506)">
<path d="M190.732 166.009C190.734 169.806 189.516 173.504 187.256 176.555C184.996 179.607 181.815 181.85 178.182 182.954C174.549 184.058 170.657 183.964 167.082 182.686C163.507 181.408 160.438 179.013 158.328 175.856C156.218 172.699 155.179 168.947 155.365 165.154C155.551 161.361 156.952 157.729 159.361 154.793C161.77 151.858 165.059 149.776 168.742 148.854C172.425 147.932 176.307 148.219 179.814 149.674C181.964 150.567 183.917 151.876 185.56 153.526C187.204 155.175 188.506 157.132 189.392 159.286C190.282 161.431 190.741 163.73 190.743 166.053L190.732 166.009Z" fill="black"/>
</g>
</g>
<defs>
<filter id="filter0_d_1306_1506" x="0.684376" y="0.484376" width="345.925" height="345.925" filterUnits="userSpaceOnUse" color-interpolation-filters="sRGB">
<feFlood flood-opacity="0" result="BackgroundImageFix"/>
<feColorMatrix in="SourceAlpha" type="matrix" values="0 0 0 0 0 0 0 0 0 0 0 0 0 0 0 0 0 0 127 0" result="hardAlpha"/>
<feOffset dy="6.8"/>
<feGaussianBlur stdDeviation="11.9"/>
<feComposite in2="hardAlpha" operator="out"/>
<feColorMatrix type="matrix" values="0 0 0 0 0.078875 0 0 0 0 0.0770833 0 0 0 0 0.166667 0 0 0 0.1 0"/>
<feBlend mode="normal" in2="BackgroundImageFix" result="effect1_dropShadow_1306_1506"/>
<feBlend mode="normal" in="SourceGraphic" in2="effect1_dropShadow_1306_1506" result="shape"/>
</filter>
<filter id="filter1_di_1306_1506" x="45.7707" y="41.3207" width="254.453" height="254.453" filterUnits="userSpaceOnUse" color-interpolation-filters="sRGB">
<feFlood flood-opacity="0" result="BackgroundImageFix"/>
<feColorMatrix in="SourceAlpha" type="matrix" values="0 0 0 0 0 0 0 0 0 0 0 0 0 0 0 0 0 0 127 0" result="hardAlpha"/>
<feOffset dy="2.55"/>
<feGaussianBlur stdDeviation="2.975"/>
<feComposite in2="hardAlpha" operator="out"/>
<feColorMatrix type="matrix" values="0 0 0 0 0 0 0 0 0 0 0 0 0 0 0 0 0 0 0.13 0"/>
<feBlend mode="normal" in2="BackgroundImageFix" result="effect1_dropShadow_1306_1506"/>
<feBlend mode="normal" in="SourceGraphic" in2="effect1_dropShadow_1306_1506" result="shape"/>
<feColorMatrix in="SourceAlpha" type="matrix" values="0 0 0 0 0 0 0 0 0 0 0 0 0 0 0 0 0 0 127 0" result="hardAlpha"/>
<feOffset dy="-4.25"/>
<feGaussianBlur stdDeviation="1.7"/>
<feComposite in2="hardAlpha" operator="arithmetic" k2="-1" k3="1"/>
<feColorMatrix type="matrix" values="0 0 0 0 0.168628 0 0 0 0 0.0862745 0 0 0 0 0.486275 0 0 0 0.32 0"/>
<feBlend mode="normal" in2="shape" result="effect2_innerShadow_1306_1506"/>
</filter>
<filter id="filter2_di_1306_1506" x="45.7707" y="41.3207" width="254.453" height="254.453" filterUnits="userSpaceOnUse" color-interpolation-filters="sRGB">
<feFlood flood-opacity="0" result="BackgroundImageFix"/>
<feColorMatrix in="SourceAlpha" type="matrix" values="0 0 0 0 0 0 0 0 0 0 0 0 0 0 0 0 0 0 127 0" result="hardAlpha"/>
<feOffset dy="2.55"/>
<feGaussianBlur stdDeviation="2.975"/>
<feComposite in2="hardAlpha" operator="out"/>
<feColorMatrix type="matrix" values="0 0 0 0 0 0 0 0 0 0 0 0 0 0 0 0 0 0 0.13 0"/>
<feBlend mode="normal" in2="BackgroundImageFix" result="effect1_dropShadow_1306_1506"/>
<feBlend mode="normal" in="SourceGraphic" in2="effect1_dropShadow_1306_1506" result="shape"/>
<feColorMatrix in="SourceAlpha" type="matrix" values="0 0 0 0 0 0 0 0 0 0 0 0 0 0 0 0 0 0 127 0" result="hardAlpha"/>
<feOffset dy="-4.25"/>
<feGaussianBlur stdDeviation="1.7"/>
<feComposite in2="hardAlpha" operator="arithmetic" k2="-1" k3="1"/>
<feColorMatrix type="matrix" values="0 0 0 0 0.168628 0 0 0 0 0.0862745 0 0 0 0 0.486275 0 0 0 0.32 0"/>
<feBlend mode="normal" in2="shape" result="effect2_innerShadow_1306_1506"/>
</filter>
<filter id="filter3_di_1306_1506" x="151.898" y="146.355" width="42.2902" height="42.2853" filterUnits="userSpaceOnUse" color-interpolation-filters="sRGB">
<feFlood flood-opacity="0" result="BackgroundImageFix"/>
<feColorMatrix in="SourceAlpha" type="matrix" values="0 0 0 0 0 0 0 0 0 0 0 0 0 0 0 0 0 0 127 0" result="hardAlpha"/>
<feOffset dy="1.47671"/>
<feGaussianBlur stdDeviation="1.72283"/>
<feComposite in2="hardAlpha" operator="out"/>
<feColorMatrix type="matrix" values="0 0 0 0 0 0 0 0 0 0 0 0 0 0 0 0 0 0 0.13 0"/>
<feBlend mode="normal" in2="BackgroundImageFix" result="effect1_dropShadow_1306_1506"/>
<feBlend mode="normal" in="SourceGraphic" in2="effect1_dropShadow_1306_1506" result="shape"/>
<feColorMatrix in="SourceAlpha" type="matrix" values="0 0 0 0 0 0 0 0 0 0 0 0 0 0 0 0 0 0 127 0" result="hardAlpha"/>
<feOffset dy="-2.46118"/>
<feGaussianBlur stdDeviation="0.984471"/>
<feComposite in2="hardAlpha" operator="arithmetic" k2="-1" k3="1"/>
<feColorMatrix type="matrix" values="0 0 0 0 0.168628 0 0 0 0 0.0862745 0 0 0 0 0.486275 0 0 0 0.32 0"/>
<feBlend mode="normal" in2="shape" result="effect2_innerShadow_1306_1506"/>
</filter>
<linearGradient id="paint0_linear_1306_1506" x1="173.374" y1="12.285" x2="183.786" y2="310.428" gradientUnits="userSpaceOnUse">
<stop stop-color="#5924FF"/>
<stop offset="1" stop-color="#26106F"/>
</linearGradient>
</defs>
</svg>
